HIERARCHY
ROOT Hips
{
	OFFSET 0.000000 0.000000 0.000000
	CHANNELS 6 Xposition Yposition Zposition Zrotation Yrotation Xrotation 
	JOINT LeftUpLeg_virtual
	{
		OFFSET 0.000000 0.000000 0.000000
		CHANNELS 3 Zrotation Yrotation Xrotation
		JOINT LeftUpLeg
		{
			OFFSET 10.205400 -3.823500 0.155100
			CHANNELS 3 Zrotation Yrotation Xrotation
			JOINT LeftLeg
			{
				OFFSET 0.708757 -12.982077 0.567790
				CHANNELS 3 Zrotation Yrotation Xrotation
				JOINT LeftFoot
				{
					OFFSET -0.708756 -10.717838 -2.184338
					CHANNELS 3 Zrotation Yrotation Xrotation
					JOINT LeftToeBase
					{
						OFFSET 0.108149 -7.191104 7.560241
						CHANNELS 3 Zrotation Yrotation Xrotation
						End Site
						{
							OFFSET 0.000000 0.000000 0.000000
						}
					}
				}
			}
		}
	}
	JOINT RightUpLeg_virtual
	{
		OFFSET 0.000000 0.000000 0.000000
		CHANNELS 3 Zrotation Yrotation Xrotation
		JOINT RightUpLeg
		{
			OFFSET -10.205400 -3.823500 0.005500
			CHANNELS 3 Zrotation Yrotation Xrotation
			JOINT RightLeg
			{
				OFFSET -0.708756 -12.982134 0.610632
				CHANNELS 3 Zrotation Yrotation Xrotation
				JOINT RightFoot
				{
					OFFSET 0.708754 -10.717769 -1.945823
					CHANNELS 3 Zrotation Yrotation Xrotation
					JOINT RightToeBase
					{
						OFFSET -0.108140 -7.191069 7.372968
						CHANNELS 3 Zrotation Yrotation Xrotation
						End Site
						{
							OFFSET 0.000000 0.000000 0.000000
						}
					}
				}
			}
		}
	}
	JOINT Spine_virtual
	{
		OFFSET 0.000000 0.000000 0.000000
		CHANNELS 3 Zrotation Yrotation Xrotation
		JOINT Spine
		{
			OFFSET 0.000000 6.876099 0.125700
			CHANNELS 3 Zrotation Yrotation Xrotation
			JOINT Spine1
			{
				OFFSET 0.000000 8.022060 0.146608
				CHANNELS 3 Zrotation Yrotation Xrotation
				JOINT Spine2
				{
					OFFSET 0.000000 9.168068 0.167552
					CHANNELS 3 Zrotation Yrotation Xrotation
					JOINT Neck_virtual
					{
						OFFSET 0.000000 0.000000 0.000000
						CHANNELS 3 Zrotation Yrotation Xrotation
						JOINT Neck
						{
							OFFSET 0.000000 10.314075 0.188496
							CHANNELS 3 Zrotation Yrotation Xrotation
							JOINT Head
							{
								OFFSET 0.000000 7.643700 -2.377400
								CHANNELS 3 Zrotation Yrotation Xrotation
								End Site
								{
									OFFSET 0.000000 0.000000 0.000000
								}
							}
						}
					}
					JOINT LeftShoulder_virtual
					{
						OFFSET 0.000000 0.000000 0.000000
						CHANNELS 3 Zrotation Yrotation Xrotation
						JOINT LeftShoulder
						{
							OFFSET 4.392200 8.824978 0.174984
							CHANNELS 3 Zrotation Yrotation Xrotation
							JOINT LeftArm
							{
								OFFSET 8.771219 -2.981674 -0.026999
								CHANNELS 3 Zrotation Yrotation Xrotation
								JOINT LeftForeArm
								{
									OFFSET 8.512804 0.000000 -0.000000
									CHANNELS 3 Zrotation Yrotation Xrotation
									JOINT LeftHand
									{
										OFFSET 18.484802 0.000000 -0.000000
										CHANNELS 3 Zrotation Yrotation Xrotation
										End Site
										{
											OFFSET 0.000000 0.000000 0.000000
										}
									}
								}
							}
						}
					}
					JOINT RightShoulder_virtual
					{
						OFFSET 0.000000 0.000000 0.000000
						CHANNELS 3 Zrotation Yrotation Xrotation
						JOINT RightShoulder
						{
							OFFSET -4.392200 8.824993 0.141379
							CHANNELS 3 Zrotation Yrotation Xrotation
							JOINT RightArm
							{
								OFFSET -8.771282 -2.981682 -0.094208
								CHANNELS 3 Zrotation Yrotation Xrotation
								JOINT RightForeArm
								{
									OFFSET -8.494598 0.000000 0.000000
									CHANNELS 3 Zrotation Yrotation Xrotation
									JOINT RightHand
									{
										OFFSET -18.483803 0.000000 0.000001
										CHANNELS 3 Zrotation Yrotation Xrotation
										End Site
										{
											OFFSET 0.000000 0.000000 0.000000
										}
									}
								}
							}
						}
					}
				}
			}
		}
	}
}
MOTION
Frames: 14
Frame Time: 0.033333
-0.684696 35.248882 6.438355 -179.726634 27.514165 -179.554731 -0.860444 -0.805333 6.168751 -7.836701 17.599946 -17.978144 15.646734 1.546584 25.006299 -5.804506 -3.368162 6.187326 0.000000 0.000000 0.000000 1.676448 3.256796 5.062726 4.176294 16.838501 -20.812792 -7.712129 3.748231 30.452385 4.037573 -0.777567 12.554846 0.000000 0.000000 0.000000 2.069348 2.786041 -8.811553 3.813845 0.587971 -0.855101 0.927874 -4.275390 15.240891 -0.019989 -0.028550 0.084700 0.646955 -2.580564 17.614704 12.677113 -17.521826 10.793520 0.000000 0.000000 0.000000 2.030527 -1.918729 14.231865 -12.646313 -22.320691 1.581411 -45.672741 -45.461336 21.753623 -20.457352 -55.664027 5.460288 0.000000 0.000000 0.000000 -1.278119 -0.772750 14.429663 29.336537 13.787165 -1.164656 42.134822 -20.503019 -27.203701 -9.982373 58.531620 -11.761561 0.000000 0.000000 0.000000 
-0.523782 35.236153 6.431144 -179.769254 27.528693 -179.560851 -0.831710 -0.611071 6.178586 -7.358218 17.586759 -17.696668 15.134188 1.350117 24.939847 -5.658476 -3.248607 6.121215 0.000000 0.000000 0.000000 1.616198 3.419063 4.994426 4.509287 16.647177 -20.451239 -7.816078 3.308575 30.363500 3.718070 -0.516115 12.213128 0.000000 0.000000 0.000000 1.933854 2.872601 -8.703893 4.082345 0.547864 -1.275499 0.882147 -4.270841 14.956543 -0.003636 0.004487 0.077945 0.561549 -2.512666 17.246682 11.408129 -16.929780 11.632531 0.000000 0.000000 0.000000 2.099673 -1.826738 13.929799 -12.878230 -22.148762 1.835874 -44.618774 -44.246601 21.714339 -20.240212 -56.000475 5.702079 0.000000 0.000000 0.000000 -1.336226 -0.737180 14.107302 29.528923 13.014445 -0.913928 42.170783 -20.929634 -25.687863 -9.469940 58.871395 -11.525827 0.000000 0.000000 0.000000 
-0.373868 35.246330 6.410429 -179.875013 27.149601 -179.654507 -0.902532 -0.464726 6.160687 -6.651009 17.366709 -17.290747 14.328236 1.533529 24.710516 -5.571679 -3.302507 6.003331 0.000000 0.000000 0.000000 1.648548 3.489374 4.931260 4.794934 16.199134 -19.900893 -7.949433 2.845126 30.262297 3.399532 -0.247352 11.800262 0.000000 0.000000 0.000000 1.777914 2.949975 -8.617018 4.298661 0.699207 -1.863844 0.804997 -4.332447 14.718177 -0.015710 0.007594 0.074842 0.611235 -2.551071 16.984500 10.177177 -16.206584 12.494814 0.000000 0.000000 0.000000 2.120185 -1.940514 13.640734 -13.094921 -21.803366 2.186383 -43.646008 -42.065626 22.108583 -20.060500 -57.039128 6.335627 0.000000 0.000000 0.000000 -1.291918 -0.774836 13.795916 29.666626 12.204571 -0.645938 41.845270 -21.382843 -23.453857 -8.920374 59.593749 -11.240757 0.000000 0.000000 0.000000 
-0.236481 35.280888 6.357697 -179.856954 26.557244 -179.686936 -0.912272 -0.362987 6.144135 -5.741009 16.957756 -16.709641 13.353859 1.988489 24.330049 -5.620437 -3.293216 5.873918 0.000000 0.000000 0.000000 1.835662 3.511725 4.805174 4.980066 15.802426 -19.175541 -8.092755 2.392459 30.113075 3.100857 0.012832 11.312653 0.000000 0.000000 0.000000 1.726005 2.893265 -8.576998 4.568267 0.729520 -2.598480 0.620205 -4.456694 14.564567 -0.021722 0.116920 0.071934 0.580771 -2.570849 16.657663 9.082355 -15.435645 13.368424 0.000000 0.000000 0.000000 2.167699 -1.846176 13.317953 -13.187024 -21.218729 2.491550 -42.882786 -38.631769 23.221514 -19.879361 -58.834450 7.534593 0.000000 0.000000 0.000000 -1.360571 -0.673402 13.538103 29.741342 11.523604 -0.348620 41.420350 -21.954972 -20.318566 -8.327989 60.776376 -11.051529 0.000000 0.000000 0.000000 
-0.118362 35.334045 6.293079 -179.928425 25.784779 -179.775237 -0.991287 -0.306634 6.069923 -4.878749 16.672886 -16.094183 12.370113 2.365033 23.739016 -5.812097 -3.248339 5.772522 0.000000 0.000000 0.000000 2.069996 3.279259 4.626545 5.051634 15.272675 -18.205359 -8.223419 1.979172 30.026003 2.877981 0.261823 10.706659 0.000000 0.000000 0.000000 1.602586 3.016158 -8.553170 4.822967 1.121745 -3.492024 0.681355 -4.393915 14.479152 0.025682 0.014296 0.020872 0.467509 -2.510864 16.542797 7.933966 -14.240030 14.236188 0.000000 0.000000 0.000000 2.050891 -1.953684 13.201611 -13.272199 -20.731707 2.860855 -42.142383 -33.871424 24.562007 -19.844362 -61.444047 9.234410 0.000000 0.000000 0.000000 -1.480155 -0.809552 13.192570 29.723269 10.692705 0.091684 40.757894 -22.769049 -16.335120 -7.816225 62.283184 -10.904465 0.000000 0.000000 0.000000 
-0.042591 35.386875 6.216199 -179.973599 24.652222 -179.886132 -1.028987 -0.427818 5.967398 -4.273847 16.547021 -15.505984 11.511327 2.466714 23.158357 -5.867798 -3.349830 5.654033 0.000000 0.000000 0.000000 2.370708 2.809035 4.381515 4.957858 14.745569 -17.241272 -8.326598 1.606653 30.042433 2.745621 0.504625 9.775333 0.000000 0.000000 0.000000 1.578045 2.799459 -8.475088 5.139056 1.360494 -4.338164 0.586557 -4.462723 14.285186 -0.046328 0.098560 0.054472 0.404632 -2.554758 16.380780 7.036060 -13.297677 14.972338 0.000000 0.000000 0.000000 2.057040 -1.914935 13.110033 -13.303102 -19.845905 3.272783 -41.418516 -28.326384 25.834134 -20.307568 -65.029411 11.728503 0.000000 0.000000 0.000000 -1.496390 -0.703671 13.142678 29.635347 10.174439 0.539299 39.713677 -23.308768 -12.207785 -6.778176 63.627358 -10.246893 0.000000 0.000000 0.000000 
-0.023412 35.418270 6.159238 -179.957357 23.380542 -179.986181 -0.998197 -0.728873 5.748069 -3.989398 16.476207 -14.973486 10.758496 2.216432 22.701192 -5.780303 -3.371341 5.339466 0.000000 0.000000 0.000000 2.676631 2.210562 4.287445 4.708879 14.077902 -16.399006 -8.401172 1.219160 29.894983 2.707479 0.714966 8.740242 0.000000 0.000000 0.000000 1.618288 2.542204 -8.414352 5.510956 1.784553 -5.183107 0.567425 -4.424258 14.270837 -0.011287 0.002880 0.053150 0.363537 -2.522590 16.324577 6.351022 -12.354802 15.634557 0.000000 0.000000 0.000000 2.026597 -1.966031 13.101233 -13.307798 -19.041703 3.532105 -40.636805 -22.358052 26.576225 -22.007580 -69.303689 15.800345 0.000000 0.000000 0.000000 -1.577418 -0.744705 13.033321 29.485336 9.822867 0.891747 38.361508 -23.014717 -8.153726 -6.068836 64.437910 -9.912971 0.000000 0.000000 0.000000 
-0.057216 35.413105 6.123140 -179.940582 22.060253 179.780947 -0.862759 -0.978123 5.487978 -3.893822 16.324256 -14.311014 10.132138 1.895982 22.283021 -5.626840 -3.248695 4.904051 0.000000 0.000000 0.000000 2.914402 1.588903 4.124111 4.476725 12.910182 -15.490895 -8.428418 0.757364 29.708324 2.860903 0.927585 7.900870 0.000000 0.000000 0.000000 1.762903 2.188163 -8.233773 5.937536 2.136942 -5.858181 0.550642 -4.412496 14.308332 -0.029103 -0.011723 0.058697 0.331835 -2.393398 16.300112 5.943475 -11.408950 16.186247 0.000000 0.000000 0.000000 1.977199 -1.903385 13.052369 -13.216074 -18.133129 3.846150 -39.866933 -16.474372 26.737409 -25.383227 -74.160364 21.698797 0.000000 0.000000 0.000000 -1.632988 -0.638854 12.980236 29.341803 9.818009 1.282927 36.635110 -21.277781 -4.809409 -5.073211 64.592334 -9.298425 0.000000 0.000000 0.000000 
-0.157124 35.371380 6.099146 -179.882785 20.805323 179.799348 -0.627293 -1.056181 5.249434 -4.174335 15.886631 -14.273426 9.732699 1.943594 22.061444 -5.546442 -3.192275 4.801299 0.000000 0.000000 0.000000 3.101885 1.217313 3.927822 4.107956 11.721972 -14.915682 -8.446933 0.378811 29.707426 3.101276 1.025615 7.081069 0.000000 0.000000 0.000000 1.952567 1.937096 -8.143540 6.421913 2.522502 -6.659723 0.553015 -4.346019 14.478478 -0.008894 -0.006126 0.014122 0.341444 -2.439458 16.301324 5.818352 -10.568140 16.666613 0.000000 0.000000 0.000000 1.946786 -1.974963 13.099012 -13.088978 -17.151834 4.152911 -39.325402 -10.897164 26.344719 -33.780371 -78.983037 32.747608 0.000000 0.000000 0.000000 -1.713002 -0.606304 13.017781 29.242106 9.973778 1.511184 34.692392 -18.039836 -2.281398 -3.880972 64.100410 -8.480406 0.000000 0.000000 0.000000 
-0.319806 35.297752 6.071685 -179.848552 19.572250 179.767382 -0.349629 -0.861133 5.002330 -4.593641 14.903642 -14.330871 9.529426 2.412802 21.949132 -5.419615 -3.127127 4.700136 0.000000 0.000000 0.000000 3.217796 0.816510 3.825194 3.541823 10.909103 -14.429545 -8.355021 -0.027969 29.788596 3.508346 1.062938 5.873897 0.000000 0.000000 0.000000 2.128247 1.964298 -7.932386 6.927462 2.636493 -7.464628 0.559985 -4.418399 14.641680 -0.033166 -0.044770 -0.004977 0.456471 -2.340247 16.365861 5.836039 -9.588776 17.052781 0.000000 0.000000 0.000000 1.954458 -1.764657 13.242671 -12.801941 -16.270482 4.407180 -38.981529 -5.583111 25.690128 -53.146890 -82.924514 54.784807 0.000000 0.000000 0.000000 -1.689028 -0.376575 13.002304 29.179350 10.223506 1.841064 33.163703 -14.115590 -0.712487 -2.965637 63.399790 -7.952341 0.000000 0.000000 0.000000 
-0.562363 35.210613 6.008951 -179.798788 18.306664 179.708930 -0.077942 -0.957038 4.736991 -5.234189 14.272257 -14.308625 9.557857 2.752773 22.103175 -5.244624 -3.006674 4.369669 0.000000 0.000000 0.000000 3.353577 0.297487 3.723352 2.725130 10.652730 -14.102228 -8.216193 -0.387443 30.275667 4.104384 1.062282 4.609027 0.000000 0.000000 0.000000 2.357897 1.539963 -7.626572 7.473838 3.056614 -8.235168 0.598674 -4.438679 14.758229 0.018491 -0.057400 0.004063 0.515553 -2.302239 16.365616 5.899901 -9.010089 17.498735 0.000000 0.000000 0.000000 1.961118 -1.772365 13.371373 -12.471908 -15.439716 4.582058 -38.954857 -0.529666 25.153379 -87.337151 -84.529117 91.574839 0.000000 0.000000 0.000000 -1.742378 -0.463119 13.021567 29.198068 10.355444 1.897890 31.912013 -10.386324 0.234799 -1.977359 62.644733 -7.365257 0.000000 0.000000 0.000000 
-0.899208 35.135475 5.913696 -179.751058 17.471207 179.626175 0.130672 -1.194886 4.591522 -6.167942 14.154254 -14.277696 9.741457 3.105999 22.250434 -5.096479 -2.838963 3.944135 0.000000 0.000000 0.000000 3.513927 -0.140466 3.626844 1.582856 10.952861 -13.874354 -8.001561 -0.719366 30.705419 4.915597 1.055427 3.725920 0.000000 0.000000 0.000000 2.618717 1.222545 -7.183613 8.087064 3.174365 -9.049949 0.608334 -4.306150 14.866573 -0.010223 -0.160751 -0.020352 0.563661 -2.198807 16.376946 5.837497 -8.351674 17.976532 0.000000 0.000000 0.000000 2.046045 -1.709213 13.428391 -12.103375 -14.499131 4.999698 -39.199227 4.063387 24.822658 -114.472038 -84.116102 121.191202 0.000000 0.000000 0.000000 -1.684551 -0.352732 12.989940 29.280970 10.195333 2.054728 31.319406 -8.070996 0.333103 -1.462556 62.305730 -7.262288 0.000000 0.000000 0.000000 
-1.312006 35.070126 5.771869 -179.678112 16.914328 179.595262 0.275841 -1.431024 4.639309 -7.334965 14.579420 -14.178937 10.018178 3.433008 22.358723 -5.009000 -2.671104 3.462386 0.000000 0.000000 0.000000 3.727460 -0.532084 3.609203 0.198897 11.344735 -13.845072 -7.708044 -0.636784 31.457686 5.855427 0.988135 3.129987 0.000000 0.000000 0.000000 2.918419 0.965444 -6.764364 8.779366 3.373768 -9.820211 0.543322 -4.218984 14.888218 0.018782 -0.136561 -0.039397 0.661788 -2.021388 16.487614 5.623913 -7.686228 18.599379 0.000000 0.000000 0.000000 2.074602 -1.731676 13.607516 -11.722133 -13.725060 5.327869 -39.617846 8.134724 24.702475 -126.156599 -83.493496 135.166042 0.000000 0.000000 0.000000 -1.697695 -0.386384 12.897774 29.262668 9.434680 1.976092 31.598381 -7.785521 0.058779 -1.545902 62.600965 -7.745302 0.000000 0.000000 0.000000 
-1.759480 34.987091 5.616640 -179.622951 16.493310 179.496224 0.407270 -1.728820 4.701256 -8.652438 15.278510 -14.235670 10.326770 3.622880 22.488972 -5.059829 -2.579039 2.940091 0.000000 0.000000 0.000000 3.915149 -0.799958 3.709001 -1.265199 11.609153 -14.187449 -7.389674 -0.494060 32.382972 6.769706 0.812425 2.476739 0.000000 0.000000 0.000000 3.168448 0.961514 -6.276515 9.416264 3.402860 -10.563393 0.577487 -4.226776 14.905833 0.022683 -0.265845 -0.050630 0.612893 -2.100952 16.380477 5.478482 -7.001828 19.103614 0.000000 0.000000 0.000000 2.045658 -1.703357 13.716814 -11.385428 -12.932519 5.660192 -40.278387 11.799477 24.175982 -130.807576 -83.081226 141.850748 0.000000 0.000000 0.000000 -1.832387 -0.483268 12.838499 29.126911 8.377384 1.929716 32.850683 -9.521339 -0.753167 -1.840301 63.524557 -8.397050 0.000000 0.000000 0.000000 
